# xmcd
#
# Track frame offsets: 
#        150
#        29637
#        61010
#        92193
#        133001
#        170506
#        209376
#        238942
#        267894
#        298763
#
# Disc length: 4381 seconds
#
# Revision: 2
# Processed by: cddbd v1.5.2PL0 Copyright (c) Steve Scherf et al.
# Submitted via: ExactAudioCopy v0.99pb5
#
DISCID=98111b0a
DTITLE=Kenny Barron Trio - Minor Blues
DYEAR=2009
DGENRE=Jazz
TTITLE0=Minor Blues
TTITLE1=Beautiful Love
TTITLE2=Emily
TTITLE3=For Heaven's Sake
TTITLE4=How Deep Is The Ocean
TTITLE5=Too Late Now
TTITLE6=Don't Explain
TTITLE7=Hush-A-Bye
TTITLE8=I've Never Been In Love Before
TTITLE9=My Ideal
EXTD=YEAR: 2009
EXTT0=
EXTT1=
EXTT2=
EXTT3=
EXTT4=
EXTT5=
EXTT6=
EXTT7=
EXTT8=
EXTT9=
PLAYORDER=
